{
	"asset":{
		"generator":"Khronos glTF Blender I/O v4.3.47",
		"version":"2.0"
	},
	"extensionsUsed":[
		"KHR_materials_specular",
		"KHR_materials_ior",
		"KHR_texture_transform"
	],
	"extensionsRequired":[
		"KHR_texture_transform"
	],
	"scene":0,
	"scenes":[
		{
			"name":"Scene",
			"nodes":[
				0,
				1,
				2,
				3,
				4,
				5
			]
		}
	],
	"nodes":[
		{
			"mesh":0,
			"name":"Cube",
			"rotation":[
				0,
				0,
				-1,
				0
			],
			"scale":[
				69.54229736328125,
				0.36407187581062317,
				62.94820022583008
			],
			"translation":[
				0,
				0.20000004768371582,
				0
			]
		},
		{
			"mesh":1,
			"name":"Cube.001",
			"rotation":[
				1,
				0,
				0,
				0
			],
			"scale":[
				-69.54229736328125,
				-1,
				-62.94820022583008
			],
			"translation":[
				0,
				33.80271911621094,
				0
			]
		},
		{
			"mesh":2,
			"name":"Picture Frame",
			"rotation":[
				0.70710688829422,
				0,
				0,
				0.7071066498756409
			],
			"scale":[
				-12.233949661254883,
				-12.233949661254883,
				-12.233949661254883
			],
			"translation":[
				1.3496387004852295,
				18.497745513916016,
				-59.26058578491211
			]
		},
		{
			"mesh":3,
			"name":"Painting with frame",
			"rotation":[
				0.5,
				-0.5,
				-0.5,
				0.5
			],
			"scale":[
				8.280953407287598,
				4.360000133514404,
				11.470649719238281
			],
			"translation":[
				-15.252612113952637,
				17.035707473754883,
				-59.75520706176758
			]
		},
		{
			"mesh":4,
			"name":"Painting with frame.001",
			"rotation":[
				-0.5,
				0.5,
				-0.5,
				0.5
			],
			"scale":[
				-10.896244049072266,
				-1,
				-12.996716499328613
			],
			"translation":[
				-32.00291442871094,
				18.441240310668945,
				-59.729061126708984
			]
		},
		{
			"mesh":5,
			"name":"ImageMesh.001",
			"rotation":[
				0.70710688829422,
				0,
				0,
				0.7071066498756409
			],
			"scale":[
				-12.233949661254883,
				-12.233949661254883,
				-12.233949661254883
			],
			"translation":[
				1.3496387004852295,
				18.497745513916016,
				-59.55058670043945
			]
		}
	],
	"materials":[
		{
			"doubleSided":true,
			"extensions":{
				"KHR_materials_specular":{
					"specularFactor":0.4000000059604645
				},
				"KHR_materials_ior":{
					"ior":1.4500000476837158
				}
			},
			"name":"Wood",
			"normalTexture":{
				"extensions":{
					"KHR_texture_transform":{
						"offset":[
							0,
							-2
						],
						"scale":[
							3,
							3
						]
					}
				},
				"index":0,
				"texCoord":1
			},
			"pbrMetallicRoughness":{
				"baseColorTexture":{
					"extensions":{
						"KHR_texture_transform":{
							"offset":[
								0,
								-2
							],
							"scale":[
								3,
								3
							]
						}
					},
					"index":1,
					"texCoord":1
				},
				"metallicFactor":0.30000001192092896,
				"metallicRoughnessTexture":{
					"extensions":{
						"KHR_texture_transform":{
							"offset":[
								0,
								-2
							],
							"scale":[
								3,
								3
							]
						}
					},
					"index":2,
					"texCoord":1
				}
			}
		},
		{
			"alphaMode":"BLEND",
			"doubleSided":true,
			"name":"Cement tiles",
			"normalTexture":{
				"index":3,
				"texCoord":1
			},
			"pbrMetallicRoughness":{
				"baseColorTexture":{
					"index":4,
					"texCoord":1
				},
				"metallicFactor":0.8041239976882935,
				"metallicRoughnessTexture":{
					"index":5,
					"texCoord":1
				}
			}
		},
		{
			"doubleSided":true,
			"name":"Ceramic",
			"pbrMetallicRoughness":{
				"baseColorTexture":{
					"extensions":{
						"KHR_texture_transform":{
							"offset":[
								0,
								-1
							],
							"scale":[
								2,
								2
							]
						}
					},
					"index":6,
					"texCoord":1
				},
				"metallicFactor":0.41237109899520874,
				"metallicRoughnessTexture":{
					"extensions":{
						"KHR_texture_transform":{
							"offset":[
								0,
								-1
							],
							"scale":[
								2,
								2
							]
						}
					},
					"index":7,
					"texCoord":1
				}
			}
		},
		{
			"doubleSided":true,
			"name":"Wood Wall.001",
			"normalTexture":{
				"extensions":{
					"KHR_texture_transform":{
						"offset":[
							0,
							0.5
						],
						"scale":[
							0.5,
							0.5
						]
					}
				},
				"index":8,
				"texCoord":1
			},
			"pbrMetallicRoughness":{
				"baseColorTexture":{
					"extensions":{
						"KHR_texture_transform":{
							"offset":[
								0,
								0.5
							],
							"scale":[
								0.5,
								0.5
							]
						}
					},
					"index":9,
					"texCoord":1
				},
				"metallicFactor":0.34020617604255676,
				"metallicRoughnessTexture":{
					"extensions":{
						"KHR_texture_transform":{
							"offset":[
								0,
								0.5
							],
							"scale":[
								0.5,
								0.5
							]
						}
					},
					"index":10,
					"texCoord":1
				}
			}
		},
		{
			"doubleSided":true,
			"name":"PORTA_TINTA",
			"pbrMetallicRoughness":{
				"baseColorFactor":[
					0.6273553967475891,
					0.4554590582847595,
					0.4554590582847595,
					1
				],
				"metallicFactor":0,
				"roughnessFactor":0.5
			}
		},
		{
			"doubleSided":true,
			"name":"Material.007",
			"pbrMetallicRoughness":{
				"baseColorFactor":[
					0.3185391426086426,
					0.29425594210624695,
					0.052435252815485,
					1
				],
				"roughnessFactor":0.41489362716674805
			}
		},
		{
			"doubleSided":true,
			"name":"Carvalho",
			"pbrMetallicRoughness":{
				"baseColorTexture":{
					"index":11
				},
				"metallicFactor":0,
				"roughnessFactor":0.26595747470855713
			}
		},
		{
			"doubleSided":true,
			"name":"quadro_figura",
			"pbrMetallicRoughness":{
				"baseColorTexture":{
					"index":12
				},
				"metallicFactor":0,
				"roughnessFactor":0.21985816955566406
			}
		},
		{
			"doubleSided":true,
			"name":"PORTA_TINTA.001",
			"pbrMetallicRoughness":{
				"baseColorFactor":[
					0.6266627311706543,
					0.6266627311706543,
					0.6266627311706543,
					1
				],
				"metallicFactor":0,
				"roughnessFactor":0.5
			}
		},
		{
			"doubleSided":true,
			"name":"Material.008",
			"pbrMetallicRoughness":{
				"baseColorFactor":[
					0.3185391426086426,
					0.29425594210624695,
					0.052435252815485,
					1
				],
				"roughnessFactor":0.41489362716674805
			}
		},
		{
			"doubleSided":true,
			"name":"quadro2_figura",
			"pbrMetallicRoughness":{
				"baseColorTexture":{
					"index":13
				},
				"metallicFactor":0,
				"roughnessFactor":0.542553186416626
			}
		},
		{
			"doubleSided":true,
			"name":"Material.010",
			"pbrMetallicRoughness":{
				"baseColorTexture":{
					"index":14,
					"texCoord":1
				},
				"metallicFactor":0,
				"roughnessFactor":0.5
			}
		}
	],
	"meshes":[
		{
			"name":"Cube",
			"primitives":[
				{
					"attributes":{
						"POSITION":0,
						"NORMAL":1,
						"TEXCOORD_0":2,
						"TEXCOORD_1":3
					},
					"indices":4,
					"material":0
				},
				{
					"attributes":{
						"POSITION":5,
						"NORMAL":6,
						"TEXCOORD_0":7,
						"TEXCOORD_1":8
					},
					"indices":9,
					"material":1
				},
				{
					"attributes":{
						"POSITION":10,
						"NORMAL":11,
						"TEXCOORD_0":12,
						"TEXCOORD_1":13
					},
					"indices":14,
					"material":2
				}
			]
		},
		{
			"name":"Cube.001",
			"primitives":[
				{
					"attributes":{
						"POSITION":15,
						"NORMAL":16,
						"TEXCOORD_0":17
					},
					"indices":18
				}
			]
		},
		{
			"name":"Cube.003",
			"primitives":[
				{
					"attributes":{
						"POSITION":19,
						"NORMAL":20,
						"TEXCOORD_0":21,
						"TEXCOORD_1":22
					},
					"indices":23,
					"material":3
				}
			]
		},
		{
			"name":"Cube.023",
			"primitives":[
				{
					"attributes":{
						"POSITION":24,
						"NORMAL":25,
						"TEXCOORD_0":26
					},
					"indices":27,
					"material":4
				},
				{
					"attributes":{
						"POSITION":28,
						"NORMAL":29,
						"TEXCOORD_0":30
					},
					"indices":31,
					"material":5
				},
				{
					"attributes":{
						"POSITION":32,
						"NORMAL":33,
						"TEXCOORD_0":34
					},
					"indices":35,
					"material":6
				},
				{
					"attributes":{
						"POSITION":36,
						"NORMAL":37,
						"TEXCOORD_0":38
					},
					"indices":39,
					"material":7
				}
			]
		},
		{
			"name":"Cube.032",
			"primitives":[
				{
					"attributes":{
						"POSITION":40,
						"NORMAL":41,
						"TEXCOORD_0":42
					},
					"indices":43,
					"material":8
				},
				{
					"attributes":{
						"POSITION":44,
						"NORMAL":45,
						"TEXCOORD_0":46
					},
					"indices":47,
					"material":9
				},
				{
					"attributes":{
						"POSITION":48,
						"NORMAL":49,
						"TEXCOORD_0":50
					},
					"indices":51,
					"material":10
				}
			]
		},
		{
			"name":"Cube.010",
			"primitives":[
				{
					"attributes":{
						"POSITION":52,
						"NORMAL":53,
						"TEXCOORD_0":54,
						"TEXCOORD_1":55
					},
					"indices":56,
					"material":11
				}
			]
		}
	],
	"textures":[
		{
			"sampler":0,
			"source":0
		},
		{
			"sampler":0,
			"source":1
		},
		{
			"sampler":0,
			"source":2
		},
		{
			"sampler":0,
			"source":3
		},
		{
			"sampler":0,
			"source":4
		},
		{
			"sampler":0,
			"source":5
		},
		{
			"sampler":0,
			"source":6
		},
		{
			"sampler":0,
			"source":7
		},
		{
			"sampler":0,
			"source":8
		},
		{
			"sampler":0,
			"source":9
		},
		{
			"sampler":0,
			"source":10
		},
		{
			"sampler":0,
			"source":11
		},
		{
			"sampler":0,
			"source":12
		},
		{
			"sampler":0,
			"source":13
		},
		{
			"sampler":0,
			"source":14
		}
	],
	"images":[
		{
			"mimeType":"image/jpeg",
			"name":"wood-90_bump",
			"uri":"NewRoom/wood-90_bump.jpg"
		},
		{
			"mimeType":"image/jpeg",
			"name":"wood-90_diffuse",
			"uri":"NewRoom/wood-90_diffuse.jpg"
		},
		{
			"mimeType":"image/png",
			"name":"wood-90_smooth",
			"uri":"NewRoom/wood-90_smooth.png"
		},
		{
			"mimeType":"image/jpeg",
			"name":"6x6_Normal",
			"uri":"NewRoom/6x6_Normal.jpg"
		},
		{
			"mimeType":"image/png",
			"name":"grey pattern-6x6_Alpha",
			"uri":"NewRoom/grey%20pattern-6x6_Alpha.png"
		},
		{
			"mimeType":"image/png",
			"name":"6x6_Roughness",
			"uri":"NewRoom/6x6_Roughness.png"
		},
		{
			"mimeType":"image/jpeg",
			"name":"ceramic_BaseColor",
			"uri":"NewRoom/ceramic_BaseColor.jpg"
		},
		{
			"mimeType":"image/png",
			"name":"ceramic_Roughness",
			"uri":"NewRoom/ceramic_Roughness.png"
		},
		{
			"mimeType":"image/png",
			"name":"Wood_wall_Normal",
			"uri":"NewRoom/Wood_wall_Normal.png"
		},
		{
			"mimeType":"image/png",
			"name":"Wood_wall_Base_Color",
			"uri":"NewRoom/Wood_wall_Base_Color.png"
		},
		{
			"mimeType":"image/png",
			"name":"Wood_wall_Roughness",
			"uri":"NewRoom/Wood_wall_Roughness.png"
		},
		{
			"mimeType":"image/jpeg",
			"name":"textura 1",
			"uri":"NewRoom/textura%201.jpg"
		},
		{
			"mimeType":"image/jpeg",
			"name":"quadro_01",
			"uri":"NewRoom/quadro_01.jpg"
		},
		{
			"mimeType":"image/jpeg",
			"name":"quadro2",
			"uri":"NewRoom/quadro2.jpg"
		},
		{
			"mimeType":"image/png",
			"name":"Untitled",
			"uri":"NewRoom/Untitled.png"
		}
	],
	"accessors":[
		{
			"bufferView":0,
			"componentType":5126,
			"count":174,
			"max":[
				1,
				1,
				1
			],
			"min":[
				-1,
				-89.40740966796875,
				-1
			],
			"type":"VEC3"
		},
		{
			"bufferView":1,
			"componentType":5126,
			"count":174,
			"type":"VEC3"
		},
		{
			"bufferView":2,
			"componentType":5126,
			"count":174,
			"type":"VEC2"
		},
		{
			"bufferView":3,
			"componentType":5126,
			"count":174,
			"type":"VEC2"
		},
		{
			"bufferView":4,
			"componentType":5123,
			"count":492,
			"type":"SCALAR"
		},
		{
			"bufferView":5,
			"componentType":5126,
			"count":16,
			"max":[
				0.9176926016807556,
				-1,
				0.9380294680595398
			],
			"min":[
				-0.9173130989074707,
				-1,
				-0.9504733085632324
			],
			"type":"VEC3"
		},
		{
			"bufferView":6,
			"componentType":5126,
			"count":16,
			"type":"VEC3"
		},
		{
			"bufferView":7,
			"componentType":5126,
			"count":16,
			"type":"VEC2"
		},
		{
			"bufferView":8,
			"componentType":5126,
			"count":16,
			"type":"VEC2"
		},
		{
			"bufferView":9,
			"componentType":5123,
			"count":48,
			"type":"SCALAR"
		},
		{
			"bufferView":10,
			"componentType":5126,
			"count":86,
			"max":[
				1,
				1,
				1
			],
			"min":[
				-1,
				-89.40740966796875,
				-1
			],
			"type":"VEC3"
		},
		{
			"bufferView":11,
			"componentType":5126,
			"count":86,
			"type":"VEC3"
		},
		{
			"bufferView":12,
			"componentType":5126,
			"count":86,
			"type":"VEC2"
		},
		{
			"bufferView":13,
			"componentType":5126,
			"count":86,
			"type":"VEC2"
		},
		{
			"bufferView":14,
			"componentType":5123,
			"count":168,
			"type":"SCALAR"
		},
		{
			"bufferView":15,
			"componentType":5126,
			"count":24,
			"max":[
				1,
				1,
				1
			],
			"min":[
				-1,
				-1,
				-1
			],
			"type":"VEC3"
		},
		{
			"bufferView":16,
			"componentType":5126,
			"count":24,
			"type":"VEC3"
		},
		{
			"bufferView":17,
			"componentType":5126,
			"count":24,
			"type":"VEC2"
		},
		{
			"bufferView":18,
			"componentType":5123,
			"count":36,
			"type":"SCALAR"
		},
		{
			"bufferView":19,
			"componentType":5126,
			"count":1177,
			"max":[
				0.4873693287372589,
				0.05912350118160248,
				0.5850000381469727
			],
			"min":[
				-0.4873693287372589,
				-3.984634986409219e-07,
				-0.5850000381469727
			],
			"type":"VEC3"
		},
		{
			"bufferView":20,
			"componentType":5126,
			"count":1177,
			"type":"VEC3"
		},
		{
			"bufferView":21,
			"componentType":5126,
			"count":1177,
			"type":"VEC2"
		},
		{
			"bufferView":22,
			"componentType":5126,
			"count":1177,
			"type":"VEC2"
		},
		{
			"bufferView":23,
			"componentType":5123,
			"count":2016,
			"type":"SCALAR"
		},
		{
			"bufferView":24,
			"componentType":5126,
			"count":1106,
			"max":[
				0.7999999523162842,
				0.028500057756900787,
				0.5000000596046448
			],
			"min":[
				-0.7999999523162842,
				-0.001500060549005866,
				-0.5000000596046448
			],
			"type":"VEC3"
		},
		{
			"bufferView":25,
			"componentType":5126,
			"count":1106,
			"type":"VEC3"
		},
		{
			"bufferView":26,
			"componentType":5126,
			"count":1106,
			"type":"VEC2"
		},
		{
			"bufferView":27,
			"componentType":5123,
			"count":1662,
			"type":"SCALAR"
		},
		{
			"bufferView":28,
			"componentType":5126,
			"count":208,
			"max":[
				0.6765567660331726,
				0.022802578285336494,
				0.3765569031238556
			],
			"min":[
				-0.6765568256378174,
				0.02216513082385063,
				-0.3765568733215332
			],
			"type":"VEC3"
		},
		{
			"bufferView":29,
			"componentType":5126,
			"count":208,
			"type":"VEC3"
		},
		{
			"bufferView":30,
			"componentType":5126,
			"count":208,
			"type":"VEC2"
		},
		{
			"bufferView":31,
			"componentType":5123,
			"count":312,
			"type":"SCALAR"
		},
		{
			"bufferView":32,
			"componentType":5126,
			"count":1008,
			"max":[
				0.6606284379959106,
				0.025441406294703484,
				0.36062848567962646
			],
			"min":[
				-0.6606284379959106,
				0.019076203927397728,
				-0.36062848567962646
			],
			"type":"VEC3"
		},
		{
			"bufferView":33,
			"componentType":5126,
			"count":1008,
			"type":"VEC3"
		},
		{
			"bufferView":34,
			"componentType":5126,
			"count":1008,
			"type":"VEC2"
		},
		{
			"bufferView":35,
			"componentType":5123,
			"count":1512,
			"type":"SCALAR"
		},
		{
			"bufferView":36,
			"componentType":5126,
			"count":100,
			"max":[
				0.6316680312156677,
				0.01927093416452408,
				0.33166801929473877
			],
			"min":[
				-0.6316680312156677,
				0.01863686367869377,
				-0.33166801929473877
			],
			"type":"VEC3"
		},
		{
			"bufferView":37,
			"componentType":5126,
			"count":100,
			"type":"VEC3"
		},
		{
			"bufferView":38,
			"componentType":5126,
			"count":100,
			"type":"VEC2"
		},
		{
			"bufferView":39,
			"componentType":5123,
			"count":150,
			"type":"SCALAR"
		},
		{
			"bufferView":40,
			"componentType":5126,
			"count":88,
			"max":[
				0.3999999761581421,
				0.05300729721784592,
				0.44999998807907104
			],
			"min":[
				-0.3999999761581421,
				-1.9670125084303436e-08,
				-0.44999998807907104
			],
			"type":"VEC3"
		},
		{
			"bufferView":41,
			"componentType":5126,
			"count":88,
			"type":"VEC3"
		},
		{
			"bufferView":42,
			"componentType":5126,
			"count":88,
			"type":"VEC2"
		},
		{
			"bufferView":43,
			"componentType":5123,
			"count":174,
			"type":"SCALAR"
		},
		{
			"bufferView":44,
			"componentType":5126,
			"count":40,
			"max":[
				0.3128945827484131,
				0.0437219962477684,
				0.36289459466934204
			],
			"min":[
				-0.3128945827484131,
				0.03455818071961403,
				-0.36289459466934204
			],
			"type":"VEC3"
		},
		{
			"bufferView":45,
			"componentType":5126,
			"count":40,
			"type":"VEC3"
		},
		{
			"bufferView":46,
			"componentType":5126,
			"count":40,
			"type":"VEC2"
		},
		{
			"bufferView":47,
			"componentType":5123,
			"count":72,
			"type":"SCALAR"
		},
		{
			"bufferView":48,
			"componentType":5126,
			"count":4,
			"max":[
				0.29721155762672424,
				0.03455821052193642,
				0.3472115695476532
			],
			"min":[
				-0.29721155762672424,
				0.03455818071961403,
				-0.3472115695476532
			],
			"type":"VEC3"
		},
		{
			"bufferView":49,
			"componentType":5126,
			"count":4,
			"type":"VEC3"
		},
		{
			"bufferView":50,
			"componentType":5126,
			"count":4,
			"type":"VEC2"
		},
		{
			"bufferView":51,
			"componentType":5123,
			"count":6,
			"type":"SCALAR"
		},
		{
			"bufferView":52,
			"componentType":5126,
			"count":4,
			"max":[
				0.3314111530780792,
				2.673050403245725e-07,
				0.4650000333786011
			],
			"min":[
				-0.3314111530780792,
				-2.710303306230344e-07,
				-0.4650000333786011
			],
			"type":"VEC3"
		},
		{
			"bufferView":53,
			"componentType":5126,
			"count":4,
			"type":"VEC3"
		},
		{
			"bufferView":54,
			"componentType":5126,
			"count":4,
			"type":"VEC2"
		},
		{
			"bufferView":55,
			"componentType":5126,
			"count":4,
			"type":"VEC2"
		},
		{
			"bufferView":56,
			"componentType":5123,
			"count":6,
			"type":"SCALAR"
		}
	],
	"bufferViews":[
		{
			"buffer":0,
			"byteLength":2088,
			"byteOffset":0,
			"target":34962
		},
		{
			"buffer":0,
			"byteLength":2088,
			"byteOffset":2088,
			"target":34962
		},
		{
			"buffer":0,
			"byteLength":1392,
			"byteOffset":4176,
			"target":34962
		},
		{
			"buffer":0,
			"byteLength":1392,
			"byteOffset":5568,
			"target":34962
		},
		{
			"buffer":0,
			"byteLength":984,
			"byteOffset":6960,
			"target":34963
		},
		{
			"buffer":0,
			"byteLength":192,
			"byteOffset":7944,
			"target":34962
		},
		{
			"buffer":0,
			"byteLength":192,
			"byteOffset":8136,
			"target":34962
		},
		{
			"buffer":0,
			"byteLength":128,
			"byteOffset":8328,
			"target":34962
		},
		{
			"buffer":0,
			"byteLength":128,
			"byteOffset":8456,
			"target":34962
		},
		{
			"buffer":0,
			"byteLength":96,
			"byteOffset":8584,
			"target":34963
		},
		{
			"buffer":0,
			"byteLength":1032,
			"byteOffset":8680,
			"target":34962
		},
		{
			"buffer":0,
			"byteLength":1032,
			"byteOffset":9712,
			"target":34962
		},
		{
			"buffer":0,
			"byteLength":688,
			"byteOffset":10744,
			"target":34962
		},
		{
			"buffer":0,
			"byteLength":688,
			"byteOffset":11432,
			"target":34962
		},
		{
			"buffer":0,
			"byteLength":336,
			"byteOffset":12120,
			"target":34963
		},
		{
			"buffer":0,
			"byteLength":288,
			"byteOffset":12456,
			"target":34962
		},
		{
			"buffer":0,
			"byteLength":288,
			"byteOffset":12744,
			"target":34962
		},
		{
			"buffer":0,
			"byteLength":192,
			"byteOffset":13032,
			"target":34962
		},
		{
			"buffer":0,
			"byteLength":72,
			"byteOffset":13224,
			"target":34963
		},
		{
			"buffer":0,
			"byteLength":14124,
			"byteOffset":13296,
			"target":34962
		},
		{
			"buffer":0,
			"byteLength":14124,
			"byteOffset":27420,
			"target":34962
		},
		{
			"buffer":0,
			"byteLength":9416,
			"byteOffset":41544,
			"target":34962
		},
		{
			"buffer":0,
			"byteLength":9416,
			"byteOffset":50960,
			"target":34962
		},
		{
			"buffer":0,
			"byteLength":4032,
			"byteOffset":60376,
			"target":34963
		},
		{
			"buffer":0,
			"byteLength":13272,
			"byteOffset":64408,
			"target":34962
		},
		{
			"buffer":0,
			"byteLength":13272,
			"byteOffset":77680,
			"target":34962
		},
		{
			"buffer":0,
			"byteLength":8848,
			"byteOffset":90952,
			"target":34962
		},
		{
			"buffer":0,
			"byteLength":3324,
			"byteOffset":99800,
			"target":34963
		},
		{
			"buffer":0,
			"byteLength":2496,
			"byteOffset":103124,
			"target":34962
		},
		{
			"buffer":0,
			"byteLength":2496,
			"byteOffset":105620,
			"target":34962
		},
		{
			"buffer":0,
			"byteLength":1664,
			"byteOffset":108116,
			"target":34962
		},
		{
			"buffer":0,
			"byteLength":624,
			"byteOffset":109780,
			"target":34963
		},
		{
			"buffer":0,
			"byteLength":12096,
			"byteOffset":110404,
			"target":34962
		},
		{
			"buffer":0,
			"byteLength":12096,
			"byteOffset":122500,
			"target":34962
		},
		{
			"buffer":0,
			"byteLength":8064,
			"byteOffset":134596,
			"target":34962
		},
		{
			"buffer":0,
			"byteLength":3024,
			"byteOffset":142660,
			"target":34963
		},
		{
			"buffer":0,
			"byteLength":1200,
			"byteOffset":145684,
			"target":34962
		},
		{
			"buffer":0,
			"byteLength":1200,
			"byteOffset":146884,
			"target":34962
		},
		{
			"buffer":0,
			"byteLength":800,
			"byteOffset":148084,
			"target":34962
		},
		{
			"buffer":0,
			"byteLength":300,
			"byteOffset":148884,
			"target":34963
		},
		{
			"buffer":0,
			"byteLength":1056,
			"byteOffset":149184,
			"target":34962
		},
		{
			"buffer":0,
			"byteLength":1056,
			"byteOffset":150240,
			"target":34962
		},
		{
			"buffer":0,
			"byteLength":704,
			"byteOffset":151296,
			"target":34962
		},
		{
			"buffer":0,
			"byteLength":348,
			"byteOffset":152000,
			"target":34963
		},
		{
			"buffer":0,
			"byteLength":480,
			"byteOffset":152348,
			"target":34962
		},
		{
			"buffer":0,
			"byteLength":480,
			"byteOffset":152828,
			"target":34962
		},
		{
			"buffer":0,
			"byteLength":320,
			"byteOffset":153308,
			"target":34962
		},
		{
			"buffer":0,
			"byteLength":144,
			"byteOffset":153628,
			"target":34963
		},
		{
			"buffer":0,
			"byteLength":48,
			"byteOffset":153772,
			"target":34962
		},
		{
			"buffer":0,
			"byteLength":48,
			"byteOffset":153820,
			"target":34962
		},
		{
			"buffer":0,
			"byteLength":32,
			"byteOffset":153868,
			"target":34962
		},
		{
			"buffer":0,
			"byteLength":12,
			"byteOffset":153900,
			"target":34963
		},
		{
			"buffer":0,
			"byteLength":48,
			"byteOffset":153912,
			"target":34962
		},
		{
			"buffer":0,
			"byteLength":48,
			"byteOffset":153960,
			"target":34962
		},
		{
			"buffer":0,
			"byteLength":32,
			"byteOffset":154008,
			"target":34962
		},
		{
			"buffer":0,
			"byteLength":32,
			"byteOffset":154040,
			"target":34962
		},
		{
			"buffer":0,
			"byteLength":12,
			"byteOffset":154072,
			"target":34963
		}
	],
	"samplers":[
		{
			"magFilter":9729,
			"minFilter":9987
		}
	],
	"buffers":[
		{
			"byteLength":154084,
			"uri":"NewPictureRoom.bin"
		}
	]
}
